<svg xmlns="http://www.w3.org/2000/svg" xmlns:xlink="http://www.w3.org/1999/xlink" width="500" zoomAndPan="magnify" viewBox="0 0 375 374.999991" height="500" preserveAspectRatio="xMidYMid meet" version="1.0"><defs><clipPath id="776dc86363"><path d="M 167 228 L 195 228 L 195 295.105469 L 167 295.105469 Z M 167 228 " clip-rule="nonzero"/></clipPath><clipPath id="ae91aceccc"><path d="M 188 228 L 216 228 L 216 295.105469 L 188 295.105469 Z M 188 228 " clip-rule="nonzero"/></clipPath><clipPath id="2d4fa452f6"><path d="M 98 289 L 285.773438 289 L 285.773438 295.105469 L 98 295.105469 Z M 98 289 " clip-rule="nonzero"/></clipPath><clipPath id="7e5d7a6f9d"><path d="M 89.273438 88 L 146 88 L 146 188 L 89.273438 188 Z M 89.273438 88 " clip-rule="nonzero"/></clipPath><clipPath id="d83550f901"><path d="M 231 79.855469 L 285 79.855469 L 285 185 L 231 185 Z M 231 79.855469 " clip-rule="nonzero"/></clipPath><clipPath id="5b15845ab3"><path d="M 122 239 L 146 239 L 146 295.105469 L 122 295.105469 Z M 122 239 " clip-rule="nonzero"/></clipPath><clipPath id="98e98216e7"><path d="M 139 239 L 163 239 L 163 295.105469 L 139 295.105469 Z M 139 239 " clip-rule="nonzero"/></clipPath><clipPath id="0e2fa0acbf"><path d="M 220 239 L 244 239 L 244 295.105469 L 220 295.105469 Z M 220 239 " clip-rule="nonzero"/></clipPath><clipPath id="f53bb5d53c"><path d="M 237 239 L 262 239 L 262 295.105469 L 237 295.105469 Z M 237 239 " clip-rule="nonzero"/></clipPath></defs><rect x="-37.5" width="450" fill="#ffffff" y="-37.499999" height="449.999989" fill-opacity="1"/><rect x="-37.5" width="450" fill="#ffffff" y="-37.499999" height="449.999989" fill-opacity="1"/><path fill="#fafafa" d="M 191.789062 170.023438 C 179.613281 170.023438 169.710938 160.121094 169.710938 147.949219 C 169.710938 135.777344 179.613281 125.875 191.789062 125.875 C 203.960938 125.875 213.863281 135.777344 213.863281 147.949219 C 213.863281 160.121094 203.957031 170.023438 191.789062 170.023438 Z M 191.789062 131.738281 C 182.847656 131.738281 175.578125 139.011719 175.578125 147.949219 C 175.578125 156.890625 182.847656 164.160156 191.789062 164.160156 C 200.726562 164.160156 208 156.890625 208 147.949219 C 207.996094 139.011719 200.726562 131.738281 191.789062 131.738281 Z M 191.789062 131.738281 " fill-opacity="1" fill-rule="nonzero"/><g clip-path="url(#776dc86363)"><path fill="#fafafa" d="M 181.304688 295.132812 C 173.90625 295.132812 167.890625 289.117188 167.890625 281.71875 L 167.890625 231.867188 C 167.890625 230.246094 169.203125 228.933594 170.820312 228.933594 C 172.441406 228.933594 173.753906 230.246094 173.753906 231.867188 L 173.753906 281.71875 C 173.753906 285.882812 177.140625 289.269531 181.304688 289.269531 C 185.46875 289.269531 188.855469 285.882812 188.855469 281.71875 L 188.855469 239.902344 C 188.855469 238.28125 190.167969 236.96875 191.785156 236.96875 C 193.402344 236.96875 194.71875 238.285156 194.71875 239.902344 L 194.71875 281.71875 C 194.71875 289.117188 188.703125 295.132812 181.304688 295.132812 Z M 181.304688 295.132812 " fill-opacity="1" fill-rule="nonzero"/></g><path fill="#fafafa" d="M 222.488281 244.535156 C 215.503906 244.535156 209.816406 238.851562 209.816406 231.867188 L 209.816406 194.835938 C 209.816406 193.214844 211.132812 191.902344 212.75 191.902344 C 214.367188 191.902344 215.679688 193.214844 215.679688 194.835938 L 215.679688 231.867188 C 215.679688 235.621094 218.734375 238.671875 222.488281 238.671875 C 226.242188 238.671875 229.292969 235.617188 229.292969 231.867188 L 229.292969 195.28125 C 229.292969 185.398438 221.253906 177.355469 211.367188 177.355469 L 172.203125 177.355469 C 162.320312 177.355469 154.277344 185.398438 154.277344 195.28125 L 154.277344 231.867188 C 154.277344 235.621094 157.332031 238.671875 161.085938 238.671875 C 164.835938 238.671875 167.890625 235.617188 167.890625 231.867188 L 167.890625 194.835938 C 167.890625 193.214844 169.203125 191.902344 170.820312 191.902344 C 172.441406 191.902344 173.753906 193.214844 173.753906 194.835938 L 173.753906 231.867188 C 173.753906 238.851562 168.070312 244.535156 161.082031 244.535156 C 154.09375 244.535156 148.410156 238.851562 148.410156 231.867188 L 148.410156 195.28125 C 148.410156 182.164062 159.085938 171.492188 172.203125 171.492188 L 211.367188 171.492188 C 224.484375 171.492188 235.15625 182.164062 235.15625 195.28125 L 235.15625 231.867188 C 235.160156 238.851562 229.476562 244.535156 222.488281 244.535156 Z M 222.488281 244.535156 " fill-opacity="1" fill-rule="nonzero"/><g clip-path="url(#ae91aceccc)"><path fill="#fafafa" d="M 202.269531 295.132812 C 194.875 295.132812 188.855469 289.117188 188.855469 281.71875 L 188.855469 239.902344 C 188.855469 238.28125 190.167969 236.96875 191.789062 236.96875 C 193.40625 236.96875 194.71875 238.285156 194.71875 239.902344 L 194.71875 281.71875 C 194.71875 285.882812 198.105469 289.269531 202.269531 289.269531 C 206.433594 289.269531 209.820312 285.882812 209.820312 281.71875 L 209.820312 231.867188 C 209.820312 230.246094 211.132812 228.933594 212.75 228.933594 C 214.371094 228.933594 215.683594 230.246094 215.683594 231.867188 L 215.683594 281.71875 C 215.683594 289.117188 209.664062 295.132812 202.269531 295.132812 Z M 202.269531 295.132812 " fill-opacity="1" fill-rule="nonzero"/></g><g clip-path="url(#2d4fa452f6)"><path fill="#fafafa" d="M 282.761719 295.132812 L 101.765625 295.132812 C 100.148438 295.132812 98.835938 293.820312 98.835938 292.203125 C 98.835938 290.582031 100.148438 289.269531 101.765625 289.269531 L 282.761719 289.269531 C 284.378906 289.269531 285.691406 290.582031 285.691406 292.203125 C 285.691406 293.820312 284.378906 295.132812 282.761719 295.132812 Z M 282.761719 295.132812 " fill-opacity="1" fill-rule="nonzero"/></g><g clip-path="url(#7e5d7a6f9d)"><path fill="#fafafa" d="M 113.519531 187.730469 C 111.898438 187.730469 110.585938 186.417969 110.585938 184.800781 L 110.585938 136.015625 L 93.464844 136.015625 C 91.972656 136.015625 90.636719 135.183594 89.96875 133.847656 C 89.304688 132.511719 89.453125 130.941406 90.351562 129.753906 L 120.4375 90.085938 C 121.132812 89.171875 122.191406 88.609375 123.339844 88.546875 C 124.496094 88.511719 125.597656 88.929688 126.386719 89.765625 L 145.15625 109.617188 C 146.269531 110.792969 146.21875 112.648438 145.039062 113.761719 C 143.867188 114.875 142.007812 114.824219 140.894531 113.644531 L 123.714844 95.472656 L 97.414062 130.152344 L 112.546875 130.152344 C 114.699219 130.152344 116.453125 131.902344 116.453125 134.054688 L 116.453125 184.800781 C 116.449219 186.417969 115.136719 187.730469 113.519531 187.730469 Z M 113.519531 187.730469 " fill-opacity="1" fill-rule="nonzero"/></g><g clip-path="url(#d83550f901)"><path fill="#fafafa" d="M 266.238281 184.046875 L 254.78125 184.046875 C 253.160156 184.046875 251.847656 182.734375 251.847656 181.117188 C 251.847656 179.5 253.164062 178.183594 254.78125 178.183594 L 263.574219 178.183594 L 263.574219 114.613281 C 263.574219 112.851562 265.007812 111.417969 266.769531 111.417969 L 275.890625 111.417969 L 256.597656 87.535156 L 240.070312 111.417969 L 242.542969 111.417969 C 244.164062 111.417969 245.476562 112.730469 245.476562 114.347656 C 245.476562 115.964844 244.164062 117.28125 242.542969 117.28125 L 234.984375 117.28125 C 233.789062 117.28125 232.703125 116.621094 232.148438 115.5625 C 231.597656 114.503906 231.675781 113.238281 232.359375 112.253906 L 253.800781 81.269531 C 254.367188 80.445312 255.308594 79.929688 256.3125 79.894531 C 257.332031 79.855469 258.292969 80.300781 258.921875 81.085938 L 283.957031 112.070312 C 284.726562 113.023438 284.882812 114.355469 284.351562 115.460938 C 283.824219 116.566406 282.691406 117.28125 281.46875 117.28125 L 269.4375 117.28125 L 269.4375 180.851562 C 269.4375 182.613281 268.003906 184.046875 266.238281 184.046875 Z M 237.183594 115.589844 L 237.175781 115.597656 C 237.179688 115.597656 237.179688 115.59375 237.183594 115.589844 Z M 254.359375 84.765625 C 254.359375 84.769531 254.363281 84.773438 254.367188 84.773438 Z M 258.628906 84.601562 L 258.625 84.609375 C 258.625 84.609375 258.625 84.605469 258.628906 84.601562 Z M 258.628906 84.601562 " fill-opacity="1" fill-rule="nonzero"/></g><path fill="#fafafa" d="M 137.875 145.117188 C 136.253906 145.117188 134.941406 143.800781 134.941406 142.183594 L 134.941406 133.625 C 134.941406 131.632812 136.558594 130.015625 138.550781 130.015625 L 145.882812 130.015625 C 147.5 130.015625 148.8125 131.328125 148.8125 132.945312 C 148.8125 134.566406 147.5 135.878906 145.882812 135.878906 L 140.804688 135.878906 L 140.804688 142.183594 C 140.804688 143.800781 139.492188 145.117188 137.875 145.117188 Z M 137.875 145.117188 " fill-opacity="1" fill-rule="nonzero"/><path fill="#fafafa" d="M 142.621094 190.996094 C 132.21875 190.996094 123.753906 182.535156 123.753906 172.132812 C 123.753906 161.726562 132.21875 153.265625 142.621094 153.265625 C 153.023438 153.265625 161.488281 161.726562 161.488281 172.132812 C 161.488281 182.535156 153.023438 190.996094 142.621094 190.996094 Z M 142.621094 159.128906 C 135.449219 159.128906 129.621094 164.960938 129.621094 172.132812 C 129.621094 179.300781 135.453125 185.132812 142.621094 185.132812 C 149.789062 185.132812 155.625 179.296875 155.625 172.132812 C 155.625 164.960938 149.789062 159.128906 142.621094 159.128906 Z M 142.621094 159.128906 " fill-opacity="1" fill-rule="nonzero"/><g clip-path="url(#5b15845ab3)"><path fill="#fafafa" d="M 133.894531 295.132812 C 127.46875 295.132812 122.238281 289.902344 122.238281 283.476562 L 122.238281 241.980469 C 122.238281 240.359375 123.554688 239.046875 125.171875 239.046875 C 126.789062 239.046875 128.101562 240.363281 128.101562 241.980469 L 128.101562 283.476562 C 128.101562 286.667969 130.703125 289.269531 133.894531 289.269531 C 137.089844 289.269531 139.691406 286.667969 139.691406 283.476562 L 139.691406 248.667969 C 139.691406 247.050781 141.003906 245.738281 142.621094 245.738281 C 144.238281 245.738281 145.554688 247.050781 145.554688 248.667969 L 145.554688 283.476562 C 145.554688 289.90625 140.324219 295.132812 133.894531 295.132812 Z M 133.894531 295.132812 " fill-opacity="1" fill-rule="nonzero"/></g><path fill="#fafafa" d="M 117.070312 253.019531 C 110.980469 253.019531 106.023438 248.066406 106.023438 241.976562 L 106.023438 211.539062 C 106.023438 200.34375 115.132812 191.234375 126.328125 191.234375 L 151.382812 191.234375 C 153.003906 191.234375 154.316406 192.550781 154.316406 194.167969 C 154.316406 195.785156 153.003906 197.097656 151.382812 197.097656 L 126.328125 197.097656 C 118.363281 197.097656 111.886719 203.574219 111.886719 211.539062 L 111.886719 241.976562 C 111.886719 244.832031 114.210938 247.15625 117.070312 247.15625 C 118.449219 247.15625 119.746094 246.621094 120.722656 245.640625 C 121.695312 244.660156 122.234375 243.355469 122.234375 241.976562 L 122.234375 211.160156 C 122.234375 209.539062 123.546875 208.230469 125.167969 208.230469 C 126.785156 208.230469 128.097656 209.542969 128.097656 211.160156 L 128.097656 241.976562 C 128.097656 244.910156 126.953125 247.679688 124.878906 249.777344 C 122.785156 251.875 120.015625 253.019531 117.070312 253.019531 Z M 117.070312 253.019531 " fill-opacity="1" fill-rule="nonzero"/><path fill="#fafafa" d="M 160.070312 244.910156 C 158.449219 244.910156 157.136719 243.59375 157.136719 241.976562 L 157.136719 241.550781 C 157.136719 239.933594 158.449219 238.621094 160.070312 238.621094 C 161.6875 238.621094 163 239.933594 163 241.550781 L 163 241.976562 C 163 243.59375 161.6875 244.910156 160.070312 244.910156 Z M 160.070312 244.910156 " fill-opacity="1" fill-rule="nonzero"/><g clip-path="url(#98e98216e7)"><path fill="#fafafa" d="M 151.347656 295.132812 C 144.917969 295.132812 139.691406 289.902344 139.691406 283.476562 L 139.691406 248.667969 C 139.691406 247.050781 141.003906 245.738281 142.621094 245.738281 C 144.238281 245.738281 145.554688 247.050781 145.554688 248.667969 L 145.554688 283.476562 C 145.554688 286.667969 148.152344 289.269531 151.34375 289.269531 C 154.539062 289.269531 157.140625 286.667969 157.140625 283.476562 L 157.140625 241.980469 C 157.140625 240.359375 158.453125 239.046875 160.070312 239.046875 C 161.6875 239.046875 163 240.363281 163 241.980469 L 163 283.476562 C 163.003906 289.90625 157.773438 295.132812 151.347656 295.132812 Z M 151.347656 295.132812 " fill-opacity="1" fill-rule="nonzero"/></g><path fill="#fafafa" d="M 240.777344 190.996094 C 230.375 190.996094 221.910156 182.535156 221.910156 172.132812 C 221.910156 161.726562 230.375 153.265625 240.777344 153.265625 C 251.179688 153.265625 259.640625 161.726562 259.640625 172.132812 C 259.640625 182.535156 251.179688 190.996094 240.777344 190.996094 Z M 240.777344 159.128906 C 233.605469 159.128906 227.773438 164.960938 227.773438 172.132812 C 227.773438 179.300781 233.609375 185.132812 240.777344 185.132812 C 247.945312 185.132812 253.777344 179.296875 253.777344 172.132812 C 253.777344 164.960938 247.949219 159.128906 240.777344 159.128906 Z M 240.777344 159.128906 " fill-opacity="1" fill-rule="nonzero"/><g clip-path="url(#0e2fa0acbf)"><path fill="#fafafa" d="M 232.050781 295.132812 C 225.625 295.132812 220.394531 289.902344 220.394531 283.476562 L 220.394531 241.980469 C 220.394531 240.359375 221.707031 239.046875 223.328125 239.046875 C 224.945312 239.046875 226.257812 240.363281 226.257812 241.980469 L 226.257812 283.476562 C 226.257812 286.667969 228.855469 289.269531 232.050781 289.269531 C 235.246094 289.269531 237.84375 286.667969 237.84375 283.476562 L 237.84375 248.667969 C 237.84375 247.050781 239.160156 245.738281 240.777344 245.738281 C 242.394531 245.738281 243.707031 247.050781 243.707031 248.667969 L 243.707031 283.476562 C 243.710938 289.90625 238.480469 295.132812 232.050781 295.132812 Z M 232.050781 295.132812 " fill-opacity="1" fill-rule="nonzero"/></g><path fill="#fafafa" d="M 266.335938 253.019531 C 260.246094 253.019531 255.292969 248.066406 255.292969 241.976562 L 255.292969 211.160156 C 255.292969 209.539062 256.605469 208.230469 258.222656 208.230469 C 259.84375 208.230469 261.15625 209.542969 261.15625 211.160156 L 261.15625 241.976562 C 261.15625 244.832031 263.480469 247.15625 266.335938 247.15625 C 267.722656 247.15625 269.015625 246.621094 269.976562 245.65625 C 270.964844 244.667969 271.5 243.367188 271.5 241.976562 L 271.5 211.539062 C 271.5 203.578125 265.027344 197.101562 257.078125 197.101562 L 232.199219 197.101562 C 230.582031 197.101562 229.269531 195.785156 229.269531 194.167969 C 229.269531 192.550781 230.582031 191.238281 232.199219 191.238281 L 257.078125 191.238281 C 268.261719 191.238281 277.363281 200.347656 277.363281 211.539062 L 277.363281 241.976562 C 277.363281 244.933594 276.214844 247.707031 274.132812 249.792969 C 272.078125 251.871094 269.304688 253.019531 266.335938 253.019531 Z M 266.335938 253.019531 " fill-opacity="1" fill-rule="nonzero"/><path fill="#fafafa" d="M 223.335938 244.910156 C 221.714844 244.910156 220.402344 243.59375 220.402344 241.976562 L 220.402344 241.550781 C 220.402344 239.933594 221.714844 238.621094 223.335938 238.621094 C 224.953125 238.621094 226.265625 239.933594 226.265625 241.550781 L 226.265625 241.976562 C 226.265625 243.59375 224.953125 244.910156 223.335938 244.910156 Z M 223.335938 244.910156 " fill-opacity="1" fill-rule="nonzero"/><g clip-path="url(#f53bb5d53c)"><path fill="#fafafa" d="M 249.503906 295.132812 C 243.074219 295.132812 237.84375 289.902344 237.84375 283.476562 L 237.84375 248.667969 C 237.84375 247.050781 239.160156 245.738281 240.777344 245.738281 C 242.398438 245.738281 243.707031 247.050781 243.707031 248.667969 L 243.707031 283.476562 C 243.707031 286.667969 246.308594 289.269531 249.5 289.269531 C 252.695312 289.269531 255.292969 286.667969 255.292969 283.476562 L 255.292969 241.980469 C 255.292969 240.359375 256.609375 239.046875 258.226562 239.046875 C 259.84375 239.046875 261.15625 240.363281 261.15625 241.980469 L 261.15625 283.476562 C 261.160156 289.90625 255.929688 295.132812 249.503906 295.132812 Z M 249.503906 295.132812 " fill-opacity="1" fill-rule="nonzero"/></g><path fill="#fafafa" d="M 191.769531 116.292969 C 190.773438 116.292969 189.835938 115.902344 189.128906 115.195312 L 177.015625 103.082031 C 174.808594 100.875 173.625 97.816406 173.773438 94.695312 C 173.921875 91.578125 175.398438 88.640625 177.816406 86.640625 C 181.757812 83.386719 187.582031 83.429688 191.722656 86.53125 C 193.835938 84.796875 196.546875 83.890625 199.300781 84.019531 C 202.421875 84.167969 205.355469 85.644531 207.355469 88.0625 C 210.953125 92.417969 210.523438 99.078125 206.378906 103.222656 L 194.40625 115.195312 C 193.703125 115.902344 192.765625 116.292969 191.769531 116.292969 Z M 190.257812 111.050781 C 190.257812 111.050781 190.257812 111.054688 190.253906 111.054688 Z M 193.277344 111.050781 L 193.28125 111.050781 C 193.277344 111.050781 193.277344 111.050781 193.277344 111.050781 Z M 184.742188 90.046875 C 183.589844 90.046875 182.457031 90.414062 181.550781 91.160156 C 180.382812 92.125 179.703125 93.480469 179.632812 94.972656 C 179.5625 96.449219 180.121094 97.890625 181.164062 98.933594 L 191.769531 109.539062 L 202.230469 99.074219 C 204.261719 97.046875 204.527344 93.847656 202.835938 91.796875 C 201.871094 90.632812 200.515625 89.949219 199.019531 89.878906 C 197.539062 89.800781 196.105469 90.367188 195.0625 91.410156 L 191.769531 94.703125 L 188.832031 91.765625 C 187.699219 90.632812 186.203125 90.046875 184.742188 90.046875 Z M 184.742188 90.046875 " fill-opacity="1" fill-rule="nonzero"/></svg>