<svg xmlns="http://www.w3.org/2000/svg" xmlns:xlink="http://www.w3.org/1999/xlink" width="500" zoomAndPan="magnify" viewBox="0 0 375 374.999991" height="500" preserveAspectRatio="xMidYMid meet" version="1.0"><defs><clipPath id="fa7c6d3f75"><path d="M 42 43.535156 L 333 43.535156 L 333 331 L 42 331 Z M 42 43.535156 " clip-rule="nonzero"/></clipPath></defs><rect x="-37.5" width="450" fill="#ffffff" y="-37.499999" height="449.999989" fill-opacity="1"/><rect x="-37.5" width="450" fill="#ffffff" y="-37.499999" height="449.999989" fill-opacity="1"/><g clip-path="url(#fa7c6d3f75)"><path fill="#fafafa" d="M 60.328125 313.066406 C 62.445312 313.058594 64.5 312.695312 66.492188 311.980469 C 68.484375 311.269531 70.300781 310.242188 71.941406 308.902344 L 106.152344 280.789062 C 106.222656 282.460938 106.371094 284.125 106.601562 285.785156 C 106.832031 287.441406 107.144531 289.082031 107.53125 290.710938 C 107.921875 292.339844 108.390625 293.945312 108.933594 295.527344 C 109.476562 297.109375 110.097656 298.660156 110.792969 300.183594 C 111.484375 301.707031 112.253906 303.191406 113.089844 304.640625 C 113.925781 306.089844 114.832031 307.496094 115.808594 308.855469 C 116.78125 310.21875 117.816406 311.527344 118.917969 312.789062 C 120.019531 314.050781 121.175781 315.253906 122.394531 316.402344 C 123.609375 317.554688 124.878906 318.640625 126.199219 319.667969 C 127.523438 320.695312 128.890625 321.652344 130.304688 322.546875 C 131.71875 323.441406 133.171875 324.265625 134.667969 325.019531 C 136.160156 325.773438 137.6875 326.453125 139.25 327.0625 C 140.808594 327.667969 142.394531 328.195312 144.003906 328.648438 C 145.617188 329.101562 147.246094 329.476562 148.890625 329.773438 C 150.539062 330.070312 152.195312 330.285156 153.863281 330.421875 C 155.53125 330.554688 157.203125 330.609375 158.875 330.585938 C 160.550781 330.558594 162.21875 330.453125 163.878906 330.265625 C 165.542969 330.078125 167.195312 329.8125 168.832031 329.464844 C 170.46875 329.121094 172.085938 328.695312 173.679688 328.195312 C 175.277344 327.691406 176.847656 327.113281 178.386719 326.460938 C 179.925781 325.804688 181.433594 325.078125 182.902344 324.277344 C 184.371094 323.480469 185.800781 322.613281 187.1875 321.675781 C 188.574219 320.738281 189.910156 319.734375 191.199219 318.667969 C 192.492188 317.601562 193.726562 316.476562 194.90625 315.289062 C 196.085938 314.101562 197.207031 312.863281 198.269531 311.570312 C 199.328125 310.273438 200.324219 308.933594 201.257812 307.542969 C 202.1875 306.152344 203.050781 304.71875 203.84375 303.246094 C 204.636719 301.773438 205.355469 300.265625 206.003906 298.71875 C 206.652344 297.175781 207.222656 295.605469 207.71875 294.007812 C 208.214844 292.410156 208.628906 290.792969 208.96875 289.152344 C 209.308594 287.511719 209.566406 285.863281 209.746094 284.199219 C 209.925781 282.535156 210.027344 280.867188 210.042969 279.191406 C 210.042969 277.402344 210.042969 275.613281 209.804688 273.917969 C 210.941406 274.367188 212.105469 274.738281 213.292969 275.027344 C 214.480469 275.316406 215.683594 275.523438 216.902344 275.644531 C 218.121094 275.769531 219.339844 275.808594 220.5625 275.761719 C 221.785156 275.71875 223 275.589844 224.203125 275.375 C 225.410156 275.164062 226.59375 274.867188 227.757812 274.492188 C 228.921875 274.117188 230.058594 273.664062 231.160156 273.128906 C 232.261719 272.597656 233.320312 271.992188 234.339844 271.316406 C 235.355469 270.636719 236.324219 269.890625 237.238281 269.078125 L 293.710938 219.191406 C 294.003906 220.035156 294.359375 220.855469 294.769531 221.648438 C 295.183594 222.441406 295.648438 223.203125 296.167969 223.933594 C 296.6875 224.660156 297.257812 225.347656 297.875 225.992188 C 298.496094 226.640625 299.15625 227.242188 299.859375 227.792969 C 300.5625 228.34375 301.304688 228.84375 302.078125 229.292969 C 302.855469 229.738281 303.65625 230.128906 304.488281 230.460938 C 305.320312 230.792969 306.167969 231.066406 307.039062 231.277344 C 307.90625 231.488281 308.789062 231.636719 309.679688 231.722656 L 310.984375 231.722656 C 312.117188 231.722656 313.238281 231.621094 314.351562 231.414062 C 315.464844 231.207031 316.546875 230.898438 317.601562 230.488281 C 318.65625 230.078125 319.664062 229.578125 320.625 228.980469 C 321.589844 228.382812 322.488281 227.703125 323.320312 226.9375 C 324.15625 226.175781 324.914062 225.339844 325.59375 224.4375 C 326.273438 223.53125 326.863281 222.570312 327.363281 221.558594 C 327.863281 220.542969 328.269531 219.492188 328.574219 218.402344 C 328.878906 217.3125 329.082031 216.203125 329.179688 215.078125 L 332.421875 179.316406 C 332.523438 178.179688 332.515625 177.042969 332.40625 175.90625 C 332.292969 174.769531 332.078125 173.652344 331.757812 172.554688 C 331.433594 171.457031 331.015625 170.402344 330.496094 169.382812 C 329.980469 168.363281 329.371094 167.402344 328.675781 166.5 C 327.976562 165.59375 327.199219 164.761719 326.347656 164.003906 C 325.496094 163.246094 324.578125 162.570312 323.597656 161.980469 C 322.621094 161.394531 321.59375 160.902344 320.523438 160.503906 C 319.453125 160.109375 318.355469 159.8125 317.226562 159.621094 L 292.210938 155.507812 L 292.210938 58.730469 C 292.210938 57.71875 292.113281 56.71875 291.914062 55.726562 C 291.71875 54.738281 291.425781 53.773438 291.039062 52.839844 C 290.652344 51.90625 290.179688 51.019531 289.617188 50.179688 C 289.054688 49.339844 288.417969 48.5625 287.703125 47.847656 C 286.988281 47.132812 286.210938 46.496094 285.371094 45.933594 C 284.53125 45.375 283.644531 44.898438 282.710938 44.511719 C 281.777344 44.125 280.816406 43.835938 279.824219 43.636719 C 278.832031 43.441406 277.832031 43.34375 276.824219 43.34375 L 254.222656 43.34375 C 253.214844 43.34375 252.214844 43.441406 251.226562 43.636719 C 250.234375 43.835938 249.273438 44.128906 248.34375 44.515625 C 247.410156 44.902344 246.527344 45.375 245.6875 45.9375 C 244.847656 46.5 244.074219 47.136719 243.359375 47.851562 C 242.648438 48.566406 242.011719 49.34375 241.453125 50.183594 C 240.894531 51.023438 240.421875 51.910156 240.039062 52.84375 C 239.65625 53.777344 239.367188 54.738281 239.171875 55.730469 C 238.976562 56.71875 238.882812 57.71875 238.886719 58.730469 L 238.886719 79.054688 C 237.054688 78.304688 235.152344 77.933594 233.175781 77.941406 L 210.671875 77.941406 C 209.664062 77.941406 208.664062 78.039062 207.675781 78.234375 C 206.683594 78.433594 205.722656 78.726562 204.792969 79.113281 C 203.859375 79.5 202.976562 79.972656 202.136719 80.535156 C 201.296875 81.097656 200.523438 81.734375 199.808594 82.449219 C 199.097656 83.164062 198.460938 83.941406 197.902344 84.78125 C 197.34375 85.625 196.871094 86.511719 196.488281 87.441406 C 196.105469 88.375 195.816406 89.339844 195.621094 90.328125 C 195.425781 91.320312 195.332031 92.320312 195.335938 93.328125 L 195.335938 113.601562 C 193.503906 112.855469 191.601562 112.484375 189.625 112.492188 L 167.21875 112.492188 C 165.242188 112.480469 163.339844 112.851562 161.511719 113.601562 L 161.511719 108.765625 C 161.507812 107.757812 161.40625 106.757812 161.207031 105.769531 C 161.007812 104.78125 160.714844 103.820312 160.324219 102.890625 C 159.9375 101.960938 159.460938 101.074219 158.898438 100.238281 C 158.339844 99.402344 157.699219 98.625 156.984375 97.914062 C 156.273438 97.203125 155.496094 96.566406 154.65625 96.007812 C 153.816406 95.449219 152.929688 94.976562 152 94.589844 C 151.066406 94.207031 150.105469 93.914062 149.117188 93.71875 C 148.128906 93.523438 147.128906 93.425781 146.121094 93.425781 L 123.667969 93.425781 C 122.660156 93.425781 121.664062 93.523438 120.671875 93.71875 C 119.683594 93.914062 118.722656 94.207031 117.792969 94.589844 C 116.859375 94.976562 115.972656 95.449219 115.136719 96.007812 C 114.296875 96.566406 113.519531 97.203125 112.804688 97.914062 C 112.089844 98.625 111.453125 99.402344 110.890625 100.238281 C 110.328125 101.074219 109.855469 101.960938 109.464844 102.890625 C 109.078125 103.820312 108.785156 104.78125 108.585938 105.769531 C 108.386719 106.757812 108.285156 107.757812 108.28125 108.765625 L 108.28125 154.152344 C 106.457031 153.386719 104.550781 153 102.570312 152.992188 L 80.117188 152.992188 C 79.109375 152.996094 78.109375 153.097656 77.121094 153.296875 C 76.128906 153.496094 75.167969 153.789062 74.238281 154.175781 C 73.304688 154.566406 72.421875 155.039062 71.582031 155.601562 C 70.742188 156.164062 69.964844 156.800781 69.253906 157.515625 C 68.539062 158.226562 67.902344 159.003906 67.339844 159.84375 C 66.777344 160.683594 66.304688 161.566406 65.914062 162.5 C 65.527344 163.429688 65.234375 164.390625 65.035156 165.382812 C 64.835938 166.371094 64.734375 167.371094 64.730469 168.378906 L 64.730469 267.722656 L 48.761719 280.886719 C 47.824219 281.632812 46.96875 282.460938 46.199219 283.378906 C 45.429688 284.296875 44.757812 285.277344 44.183594 286.332031 C 43.609375 287.382812 43.144531 288.480469 42.792969 289.625 C 42.4375 290.769531 42.203125 291.9375 42.085938 293.128906 C 42.023438 293.761719 41.996094 294.394531 42 295.03125 C 42.007812 295.664062 42.046875 296.296875 42.117188 296.929688 C 42.1875 297.558594 42.292969 298.183594 42.429688 298.804688 C 42.570312 299.425781 42.738281 300.035156 42.9375 300.640625 C 43.140625 301.242188 43.371094 301.832031 43.636719 302.410156 C 43.898438 302.988281 44.191406 303.550781 44.515625 304.097656 C 44.835938 304.644531 45.1875 305.175781 45.5625 305.683594 C 45.941406 306.195312 46.34375 306.683594 46.773438 307.152344 C 47.203125 307.621094 47.652344 308.066406 48.128906 308.488281 C 48.605469 308.910156 49.101562 309.304688 49.617188 309.675781 C 50.132812 310.042969 50.667969 310.386719 51.21875 310.699219 C 51.773438 311.011719 52.339844 311.296875 52.921875 311.550781 C 53.503906 311.804688 54.097656 312.027344 54.703125 312.21875 C 55.308594 312.410156 55.921875 312.570312 56.546875 312.695312 C 57.167969 312.824219 57.792969 312.917969 58.425781 312.980469 C 59.058594 313.042969 59.691406 313.070312 60.328125 313.066406 Z M 158.21875 321.339844 C 156.832031 321.34375 155.453125 321.28125 154.070312 321.152344 C 152.691406 321.019531 151.324219 320.820312 149.960938 320.554688 C 148.601562 320.289062 147.257812 319.960938 145.929688 319.5625 C 144.601562 319.164062 143.296875 318.703125 142.015625 318.175781 C 140.734375 317.652344 139.480469 317.066406 138.257812 316.414062 C 137.03125 315.765625 135.84375 315.058594 134.6875 314.296875 C 133.53125 313.53125 132.417969 312.710938 131.34375 311.835938 C 130.265625 310.960938 129.238281 310.035156 128.253906 309.058594 C 127.269531 308.082031 126.335938 307.0625 125.453125 305.992188 C 124.570312 304.925781 123.742188 303.816406 122.964844 302.667969 C 122.191406 301.519531 121.476562 300.335938 120.816406 299.117188 C 120.160156 297.898438 119.5625 296.648438 119.027344 295.371094 C 118.488281 294.09375 118.019531 292.789062 117.609375 291.464844 C 117.203125 290.140625 116.859375 288.800781 116.582031 287.441406 C 116.308594 286.085938 116.097656 284.71875 115.957031 283.339844 C 115.8125 281.960938 115.738281 280.578125 115.734375 279.191406 C 115.726562 276.339844 116.015625 273.515625 116.605469 270.722656 C 116.863281 269.421875 117.183594 268.132812 117.566406 266.863281 C 117.945312 265.589844 118.386719 264.339844 118.882812 263.105469 C 119.382812 261.875 119.9375 260.671875 120.550781 259.492188 C 121.160156 258.3125 121.828125 257.167969 122.546875 256.050781 C 123.265625 254.933594 124.039062 253.855469 124.859375 252.808594 C 125.679688 251.765625 126.550781 250.765625 127.464844 249.800781 C 128.378906 248.839844 129.339844 247.921875 130.339844 247.050781 C 131.34375 246.179688 132.382812 245.359375 133.464844 244.585938 C 134.542969 243.808594 135.65625 243.089844 136.804688 242.421875 C 137.953125 241.75 139.128906 241.136719 140.332031 240.578125 C 141.539062 240.019531 142.765625 239.519531 144.019531 239.078125 C 145.269531 238.636719 146.542969 238.253906 147.828125 237.929688 C 149.117188 237.605469 150.417969 237.34375 151.730469 237.144531 C 153.042969 236.945312 154.363281 236.804688 155.6875 236.730469 C 157.015625 236.652344 158.34375 236.636719 159.667969 236.6875 C 160.996094 236.734375 162.320312 236.84375 163.636719 237.019531 C 164.953125 237.191406 166.257812 237.425781 167.554688 237.71875 C 168.847656 238.015625 170.125 238.371094 171.386719 238.789062 C 172.648438 239.203125 173.886719 239.675781 175.105469 240.210938 C 176.320312 240.742188 177.507812 241.332031 178.671875 241.976562 C 179.832031 242.621094 180.960938 243.316406 182.054688 244.066406 C 183.152344 244.816406 184.210938 245.617188 185.230469 246.46875 C 186.25 247.320312 187.230469 248.214844 188.164062 249.15625 C 189.101562 250.097656 189.992188 251.082031 190.835938 252.109375 C 191.679688 253.136719 192.472656 254.199219 193.214844 255.296875 C 193.957031 256.398438 194.648438 257.53125 195.285156 258.699219 C 195.921875 259.863281 196.503906 261.054688 197.027344 262.277344 C 197.550781 263.496094 198.019531 264.738281 198.425781 266.003906 C 198.832031 267.265625 199.179688 268.546875 199.46875 269.84375 C 199.753906 271.140625 199.980469 272.449219 200.144531 273.765625 C 200.308594 275.082031 200.410156 276.40625 200.449219 277.734375 C 200.492188 279.0625 200.46875 280.386719 200.382812 281.714844 C 200.296875 283.039062 200.152344 284.355469 199.941406 285.667969 C 199.730469 286.980469 199.460938 288.277344 199.128906 289.566406 C 198.800781 290.851562 198.40625 292.117188 197.957031 293.367188 C 197.507812 294.617188 197 295.84375 196.433594 297.042969 C 195.867188 298.246094 195.246094 299.417969 194.570312 300.5625 C 193.890625 301.703125 193.164062 302.8125 192.382812 303.886719 C 191.601562 304.960938 190.773438 305.996094 189.894531 306.992188 C 189.015625 307.988281 188.09375 308.941406 187.125 309.851562 C 186.160156 310.761719 185.148438 311.625 184.101562 312.4375 C 183.050781 313.253906 181.96875 314.015625 180.847656 314.730469 C 179.726562 315.441406 178.574219 316.101562 177.390625 316.703125 C 176.207031 317.308594 175 317.855469 173.765625 318.347656 C 172.53125 318.835938 171.277344 319.269531 170.003906 319.640625 C 168.726562 320.011719 167.4375 320.324219 166.132812 320.578125 C 164.828125 320.828125 163.515625 321.015625 162.195312 321.144531 C 160.871094 321.273438 159.546875 321.335938 158.21875 321.339844 Z M 248.707031 93.472656 L 248.707031 58.875 C 248.703125 58.5 248.738281 58.128906 248.808594 57.761719 C 248.878906 57.394531 248.984375 57.039062 249.125 56.695312 C 249.265625 56.347656 249.4375 56.019531 249.644531 55.707031 C 249.851562 55.394531 250.085938 55.105469 250.347656 54.839844 C 250.613281 54.574219 250.898438 54.335938 251.210938 54.128906 C 251.519531 53.921875 251.847656 53.746094 252.191406 53.601562 C 252.535156 53.457031 252.894531 53.347656 253.257812 53.273438 C 253.625 53.203125 253.996094 53.164062 254.371094 53.164062 L 276.871094 53.164062 C 277.246094 53.164062 277.617188 53.203125 277.984375 53.273438 C 278.351562 53.347656 278.710938 53.457031 279.054688 53.597656 C 279.402344 53.742188 279.730469 53.917969 280.042969 54.128906 C 280.355469 54.335938 280.644531 54.570312 280.910156 54.835938 C 281.171875 55.101562 281.410156 55.390625 281.617188 55.703125 C 281.828125 56.015625 282.003906 56.34375 282.144531 56.691406 C 282.289062 57.035156 282.398438 57.394531 282.472656 57.761719 C 282.542969 58.128906 282.582031 58.5 282.582031 58.875 L 282.582031 153.863281 L 281.082031 153.621094 C 279.984375 153.550781 278.886719 153.550781 277.789062 153.621094 C 275.691406 153.660156 273.660156 154.046875 271.695312 154.777344 C 269.726562 155.507812 267.9375 156.542969 266.320312 157.878906 C 265.34375 158.75 264.460938 159.710938 263.675781 160.757812 C 262.894531 161.808594 262.222656 162.925781 261.664062 164.109375 C 261.109375 165.296875 260.675781 166.523438 260.367188 167.796875 C 260.058594 169.070312 259.882812 170.363281 259.835938 171.671875 C 259.878906 173.324219 260.152344 174.9375 260.660156 176.511719 C 260.632812 176.734375 260.632812 176.960938 260.660156 177.1875 C 261.15625 178.539062 261.796875 179.820312 262.585938 181.027344 C 263.375 182.234375 264.289062 183.335938 265.328125 184.335938 C 266.367188 185.332031 267.507812 186.199219 268.746094 186.9375 C 269.984375 187.675781 271.289062 188.265625 272.660156 188.703125 L 248.464844 210.527344 Z M 205.15625 127.976562 L 205.15625 93.472656 C 205.15625 93.101562 205.195312 92.730469 205.265625 92.367188 C 205.339844 92 205.445312 91.644531 205.585938 91.300781 C 205.730469 90.953125 205.902344 90.625 206.109375 90.316406 C 206.316406 90.003906 206.550781 89.71875 206.8125 89.453125 C 207.074219 89.1875 207.359375 88.953125 207.671875 88.742188 C 207.980469 88.535156 208.304688 88.355469 208.648438 88.210938 C 208.992188 88.066406 209.347656 87.957031 209.710938 87.882812 C 210.078125 87.804688 210.445312 87.765625 210.820312 87.761719 L 233.320312 87.761719 C 233.695312 87.761719 234.070312 87.792969 234.4375 87.863281 C 234.804688 87.9375 235.164062 88.042969 235.511719 88.183594 C 235.859375 88.328125 236.191406 88.503906 236.503906 88.710938 C 236.816406 88.917969 237.105469 89.15625 237.371094 89.421875 C 237.636719 89.6875 237.875 89.976562 238.082031 90.289062 C 238.292969 90.601562 238.464844 90.933594 238.609375 91.28125 C 238.75 91.628906 238.859375 91.988281 238.929688 92.355469 C 239 92.726562 239.035156 93.097656 239.03125 93.472656 L 239.03125 219.625 L 225.964844 231.285156 C 225.792969 231.367188 225.632812 231.460938 225.480469 231.578125 C 224.671875 232.21875 223.78125 232.714844 222.8125 233.070312 C 221.84375 233.425781 220.84375 233.617188 219.808594 233.652344 C 218.777344 233.6875 217.765625 233.5625 216.777344 233.273438 C 215.785156 232.984375 214.863281 232.546875 214.011719 231.964844 L 204.964844 225.578125 Z M 161.605469 127.976562 C 161.605469 127.601562 161.644531 127.230469 161.714844 126.863281 C 161.789062 126.5 161.898438 126.140625 162.042969 125.796875 C 162.1875 125.453125 162.363281 125.125 162.570312 124.816406 C 162.78125 124.503906 163.015625 124.21875 163.28125 123.953125 C 163.546875 123.691406 163.835938 123.457031 164.148438 123.25 C 164.460938 123.042969 164.789062 122.871094 165.136719 122.730469 C 165.480469 122.589844 165.839844 122.484375 166.207031 122.414062 C 166.574219 122.34375 166.941406 122.308594 167.316406 122.3125 L 189.722656 122.3125 C 190.09375 122.308594 190.464844 122.34375 190.832031 122.414062 C 191.199219 122.484375 191.554688 122.589844 191.902344 122.730469 C 192.25 122.871094 192.578125 123.042969 192.890625 123.25 C 193.203125 123.457031 193.492188 123.691406 193.753906 123.953125 C 194.019531 124.21875 194.257812 124.503906 194.46875 124.816406 C 194.675781 125.125 194.851562 125.453125 194.996094 125.796875 C 195.140625 126.140625 195.246094 126.5 195.320312 126.863281 C 195.394531 127.230469 195.429688 127.601562 195.429688 127.976562 L 195.429688 218.753906 L 174.332031 203.898438 L 168.285156 199.640625 C 167.320312 199.027344 166.320312 198.476562 165.285156 197.996094 L 164.460938 197.703125 C 163.6875 197.410156 162.898438 197.167969 162.089844 196.980469 L 161.605469 196.980469 Z M 118.054688 168.476562 L 118.054688 108.859375 C 118.058594 108.488281 118.097656 108.121094 118.175781 107.753906 C 118.25 107.390625 118.359375 107.035156 118.503906 106.691406 C 118.648438 106.347656 118.828125 106.019531 119.035156 105.710938 C 119.242188 105.402344 119.480469 105.117188 119.746094 104.855469 C 120.011719 104.59375 120.296875 104.359375 120.609375 104.152344 C 120.917969 103.945312 121.246094 103.773438 121.59375 103.628906 C 121.9375 103.488281 122.292969 103.378906 122.65625 103.308594 C 123.023438 103.234375 123.394531 103.199219 123.765625 103.199219 L 146.121094 103.199219 C 146.496094 103.199219 146.863281 103.234375 147.230469 103.308594 C 147.597656 103.378906 147.953125 103.488281 148.296875 103.628906 C 148.640625 103.773438 148.96875 103.945312 149.28125 104.152344 C 149.589844 104.359375 149.878906 104.59375 150.144531 104.855469 C 150.40625 105.117188 150.644531 105.402344 150.851562 105.710938 C 151.0625 106.019531 151.238281 106.347656 151.382812 106.691406 C 151.527344 107.035156 151.640625 107.390625 151.714844 107.753906 C 151.789062 108.121094 151.828125 108.488281 151.832031 108.859375 L 151.832031 197.511719 C 151.050781 197.816406 150.292969 198.171875 149.558594 198.574219 L 149.121094 198.574219 C 148.402344 199.003906 147.707031 199.472656 147.042969 199.980469 L 146.460938 200.367188 L 134.703125 210.042969 L 118.152344 223.640625 Z M 74.503906 168.476562 C 74.503906 168.101562 74.542969 167.730469 74.617188 167.363281 C 74.6875 166.996094 74.796875 166.636719 74.941406 166.292969 C 75.082031 165.945312 75.257812 165.617188 75.46875 165.304688 C 75.675781 164.992188 75.914062 164.703125 76.179688 164.441406 C 76.441406 164.175781 76.730469 163.9375 77.042969 163.730469 C 77.355469 163.519531 77.683594 163.34375 78.03125 163.203125 C 78.375 163.058594 78.734375 162.949219 79.101562 162.878906 C 79.46875 162.804688 79.839844 162.765625 80.214844 162.765625 L 102.570312 162.765625 C 102.945312 162.765625 103.316406 162.804688 103.683594 162.878906 C 104.054688 162.949219 104.410156 163.058594 104.757812 163.203125 C 105.101562 163.34375 105.433594 163.519531 105.742188 163.730469 C 106.054688 163.9375 106.34375 164.175781 106.609375 164.441406 C 106.875 164.703125 107.109375 164.992188 107.320312 165.304688 C 107.527344 165.617188 107.703125 165.945312 107.847656 166.292969 C 107.992188 166.636719 108.097656 166.996094 108.171875 167.363281 C 108.246094 167.730469 108.28125 168.101562 108.28125 168.476562 L 108.28125 231.867188 L 77.265625 257.417969 L 74.410156 259.835938 Z M 51.761719 294.097656 C 51.867188 292.972656 52.191406 291.917969 52.726562 290.925781 C 53.265625 289.933594 53.976562 289.085938 54.859375 288.386719 L 83.894531 264.480469 L 116.21875 237.917969 L 140.800781 217.691406 L 152.460938 208.011719 C 153.113281 207.492188 153.820312 207.070312 154.589844 206.753906 C 155.273438 206.472656 155.980469 206.308594 156.71875 206.269531 L 157.011719 206.269531 C 157.984375 206.15625 158.945312 206.222656 159.898438 206.460938 C 160.847656 206.703125 161.722656 207.109375 162.527344 207.671875 L 170.414062 213.1875 L 208.351562 239.949219 C 208.851562 240.285156 209.367188 240.589844 209.898438 240.867188 L 210.964844 241.496094 L 213.285156 242.417969 L 213.675781 242.417969 C 214.984375 242.835938 216.324219 243.113281 217.695312 243.242188 C 219.0625 243.371094 220.433594 243.355469 221.796875 243.1875 C 223.164062 243.019531 224.496094 242.707031 225.792969 242.25 C 227.09375 241.796875 228.328125 241.207031 229.496094 240.480469 C 230.386719 239.9375 231.226562 239.324219 232.011719 238.640625 L 232.351562 238.351562 L 246.871094 225.335938 L 286.355469 189.625 C 286.683594 189.324219 286.964844 188.984375 287.199219 188.605469 C 287.433594 188.230469 287.613281 187.828125 287.734375 187.402344 C 287.859375 186.972656 287.921875 186.539062 287.925781 186.09375 C 287.929688 185.648438 287.875 185.214844 287.757812 184.785156 C 287.496094 183.886719 287.011719 183.128906 286.308594 182.511719 L 285.582031 182.027344 L 285.195312 181.734375 C 284.78125 181.53125 284.34375 181.402344 283.886719 181.347656 L 277.015625 180.1875 L 276.144531 179.945312 C 275.4375 179.777344 274.757812 179.527344 274.109375 179.195312 C 273.460938 178.863281 272.859375 178.460938 272.308594 177.984375 C 271.757812 177.507812 271.269531 176.972656 270.847656 176.382812 C 270.421875 175.789062 270.078125 175.152344 269.804688 174.476562 C 269.539062 173.59375 269.441406 172.6875 269.515625 171.769531 C 269.503906 170.441406 269.796875 169.183594 270.386719 167.992188 C 270.898438 166.878906 271.625 165.925781 272.5625 165.136719 C 273.3125 164.492188 274.148438 163.988281 275.070312 163.632812 C 275.992188 163.277344 276.945312 163.082031 277.933594 163.058594 C 278.417969 162.984375 278.902344 162.984375 279.386719 163.058594 L 315.535156 169.007812 C 316.074219 169.09375 316.605469 169.226562 317.121094 169.410156 C 317.636719 169.597656 318.132812 169.828125 318.601562 170.109375 C 319.074219 170.386719 319.515625 170.710938 319.925781 171.074219 C 320.335938 171.4375 320.707031 171.839844 321.039062 172.273438 C 321.371094 172.710938 321.660156 173.175781 321.90625 173.664062 C 322.148438 174.15625 322.34375 174.667969 322.488281 175.195312 C 322.636719 175.722656 322.730469 176.261719 322.773438 176.808594 C 322.816406 177.355469 322.804688 177.902344 322.742188 178.445312 L 319.503906 214.300781 C 319.453125 214.835938 319.355469 215.363281 319.207031 215.878906 C 319.0625 216.398438 318.867188 216.894531 318.625 217.375 C 318.382812 217.855469 318.097656 218.308594 317.773438 218.734375 C 317.445312 219.164062 317.082031 219.554688 316.683594 219.914062 C 316.28125 220.273438 315.851562 220.589844 315.390625 220.867188 C 314.929688 221.144531 314.449219 221.375 313.945312 221.5625 C 313.441406 221.75 312.921875 221.886719 312.394531 221.976562 C 311.863281 222.066406 311.328125 222.105469 310.792969 222.09375 C 310.199219 222.054688 309.613281 221.960938 309.039062 221.808594 C 308.464844 221.652344 307.910156 221.445312 307.378906 221.179688 C 306.84375 220.914062 306.34375 220.601562 305.875 220.234375 C 305.402344 219.871094 304.972656 219.460938 304.585938 219.011719 C 304.199219 218.558594 303.859375 218.074219 303.570312 217.554688 C 303.277344 217.035156 303.042969 216.496094 302.859375 215.925781 C 302.679688 215.359375 302.554688 214.78125 302.488281 214.191406 C 302.421875 213.597656 302.414062 213.007812 302.46875 212.414062 L 302.757812 209.222656 C 302.800781 208.742188 302.769531 208.269531 302.667969 207.796875 C 302.566406 207.328125 302.398438 206.882812 302.164062 206.464844 C 301.929688 206.042969 301.640625 205.667969 301.292969 205.335938 C 300.949219 205 300.558594 204.726562 300.132812 204.507812 C 299.703125 204.289062 299.253906 204.136719 298.78125 204.054688 C 298.308594 203.972656 297.832031 203.957031 297.355469 204.015625 C 296.878906 204.074219 296.417969 204.199219 295.980469 204.394531 C 295.539062 204.589844 295.136719 204.84375 294.773438 205.15625 L 230.804688 261.867188 C 230.105469 262.480469 229.363281 263.035156 228.578125 263.523438 C 227.789062 264.015625 226.964844 264.4375 226.109375 264.792969 C 225.25 265.148438 224.371094 265.429688 223.464844 265.640625 C 222.5625 265.847656 221.644531 265.984375 220.71875 266.042969 C 219.792969 266.101562 218.867188 266.082031 217.945312 265.988281 C 217.023438 265.894531 216.113281 265.726562 215.21875 265.484375 C 214.320312 265.238281 213.453125 264.921875 212.609375 264.535156 C 211.765625 264.148438 210.957031 263.695312 210.191406 263.175781 L 205.351562 257.464844 C 204.792969 256.242188 204.191406 255.039062 203.542969 253.859375 C 202.890625 252.683594 202.199219 251.53125 201.460938 250.40625 C 200.71875 249.28125 199.9375 248.1875 199.113281 247.125 C 198.289062 246.0625 197.425781 245.03125 196.519531 244.035156 C 195.617188 243.039062 194.675781 242.078125 193.695312 241.15625 C 192.71875 240.234375 191.703125 239.351562 190.65625 238.503906 C 189.609375 237.660156 188.53125 236.859375 187.421875 236.097656 C 186.3125 235.335938 185.171875 234.621094 184.007812 233.949219 C 182.84375 233.277344 181.652344 232.652344 180.4375 232.070312 C 179.222656 231.492188 177.988281 230.960938 176.734375 230.476562 C 175.476562 229.992188 174.207031 229.558594 172.917969 229.175781 C 171.625 228.789062 170.324219 228.457031 169.007812 228.171875 C 167.695312 227.890625 166.371094 227.65625 165.035156 227.476562 C 163.703125 227.296875 162.363281 227.167969 161.023438 227.09375 C 159.679688 227.015625 158.335938 226.992188 156.988281 227.019531 C 155.644531 227.046875 154.300781 227.128906 152.960938 227.261719 C 151.625 227.394531 150.292969 227.578125 148.96875 227.8125 C 147.644531 228.050781 146.328125 228.335938 145.027344 228.675781 C 143.726562 229.011719 142.4375 229.402344 141.164062 229.839844 C 139.894531 230.277344 138.640625 230.765625 137.40625 231.300781 C 136.171875 231.835938 134.960938 232.417969 133.769531 233.046875 C 132.582031 233.675781 131.417969 234.351562 130.28125 235.070312 C 129.148438 235.792969 128.039062 236.554688 126.960938 237.363281 C 125.886719 238.167969 124.839844 239.015625 123.828125 239.902344 C 122.820312 240.789062 121.84375 241.714844 120.902344 242.675781 C 119.964844 243.640625 119.0625 244.640625 118.203125 245.671875 C 117.339844 246.707031 116.519531 247.769531 115.742188 248.867188 C 114.960938 249.964844 114.226562 251.089844 113.535156 252.246094 C 112.84375 253.398438 112.199219 254.578125 111.597656 255.78125 C 110.996094 256.984375 110.445312 258.210938 109.941406 259.460938 C 109.4375 260.707031 108.980469 261.972656 108.574219 263.253906 C 108.167969 264.535156 107.8125 265.832031 107.507812 267.144531 L 65.890625 301.355469 C 65.453125 301.707031 64.988281 302.011719 64.488281 302.273438 C 63.992188 302.53125 63.476562 302.742188 62.9375 302.90625 C 62.402344 303.066406 61.851562 303.175781 61.292969 303.230469 C 60.738281 303.285156 60.179688 303.289062 59.621094 303.238281 C 59.058594 303.183594 58.511719 303.082031 57.972656 302.925781 C 57.433594 302.769531 56.914062 302.5625 56.417969 302.304688 C 55.917969 302.046875 55.449219 301.746094 55.007812 301.398438 C 54.566406 301.050781 54.160156 300.667969 53.792969 300.242188 C 53.058594 299.394531 52.515625 298.4375 52.164062 297.371094 C 51.8125 296.308594 51.679688 295.214844 51.761719 294.097656 Z M 178.058594 288.582031 C 178.125 289.679688 178.089844 290.773438 177.953125 291.863281 C 177.816406 292.957031 177.582031 294.027344 177.25 295.074219 C 176.914062 296.125 176.488281 297.132812 175.972656 298.101562 C 175.453125 299.074219 174.851562 299.988281 174.164062 300.847656 C 173.476562 301.707031 172.71875 302.496094 171.886719 303.21875 C 171.054688 303.9375 170.164062 304.574219 169.214844 305.132812 C 168.265625 305.6875 167.273438 306.152344 166.238281 306.527344 C 165.203125 306.898438 164.144531 307.175781 163.058594 307.355469 L 163.058594 312.195312 C 163.058594 312.511719 163.027344 312.828125 162.964844 313.136719 C 162.902344 313.449219 162.8125 313.753906 162.691406 314.046875 C 162.570312 314.339844 162.417969 314.617188 162.242188 314.882812 C 162.066406 315.148438 161.867188 315.390625 161.640625 315.617188 C 161.417969 315.839844 161.171875 316.042969 160.90625 316.21875 C 160.644531 316.394531 160.363281 316.542969 160.070312 316.664062 C 159.777344 316.785156 159.476562 316.878906 159.164062 316.941406 C 158.851562 317.003906 158.539062 317.035156 158.21875 317.035156 C 157.902344 317.035156 157.585938 317.003906 157.277344 316.941406 C 156.964844 316.878906 156.660156 316.785156 156.367188 316.664062 C 156.074219 316.542969 155.796875 316.394531 155.53125 316.21875 C 155.265625 316.042969 155.023438 315.839844 154.796875 315.617188 C 154.574219 315.390625 154.371094 315.148438 154.195312 314.882812 C 154.019531 314.617188 153.871094 314.339844 153.75 314.046875 C 153.628906 313.753906 153.535156 313.449219 153.472656 313.136719 C 153.410156 312.828125 153.378906 312.511719 153.378906 312.195312 L 153.378906 306.96875 C 150.773438 306.472656 148.285156 305.621094 145.925781 304.414062 C 143.5625 303.203125 141.417969 301.683594 139.492188 299.855469 C 139.273438 299.625 139.082031 299.371094 138.914062 299.101562 C 138.742188 298.832031 138.601562 298.546875 138.492188 298.25 C 138.378906 297.953125 138.296875 297.648438 138.242188 297.332031 C 138.191406 297.019531 138.167969 296.703125 138.179688 296.386719 C 138.1875 296.066406 138.230469 295.753906 138.300781 295.441406 C 138.375 295.132812 138.476562 294.832031 138.605469 294.542969 C 138.738281 294.253906 138.894531 293.976562 139.082031 293.71875 C 139.265625 293.460938 139.472656 293.222656 139.707031 293.003906 C 139.9375 292.785156 140.191406 292.59375 140.460938 292.425781 C 140.730469 292.257812 141.015625 292.117188 141.3125 292.003906 C 141.609375 291.890625 141.914062 291.808594 142.230469 291.757812 C 142.542969 291.703125 142.859375 291.683594 143.179688 291.695312 C 143.496094 291.703125 143.808594 291.746094 144.121094 291.816406 C 144.429688 291.890625 144.730469 291.992188 145.019531 292.125 C 145.308594 292.253906 145.585938 292.414062 145.84375 292.597656 C 146.101562 292.785156 146.339844 292.992188 146.558594 293.226562 C 147.59375 294.148438 148.71875 294.945312 149.929688 295.617188 C 151.144531 296.289062 152.414062 296.824219 153.742188 297.21875 C 155.074219 297.609375 156.429688 297.851562 157.8125 297.949219 C 159.199219 298.042969 160.574219 297.984375 161.945312 297.773438 C 162.421875 297.671875 162.882812 297.527344 163.332031 297.34375 C 163.78125 297.15625 164.214844 296.9375 164.625 296.675781 C 165.035156 296.417969 165.421875 296.125 165.78125 295.796875 C 166.140625 295.472656 166.472656 295.117188 166.769531 294.730469 C 167.070312 294.347656 167.332031 293.941406 167.558594 293.511719 C 167.785156 293.082031 167.976562 292.636719 168.125 292.171875 C 168.273438 291.710938 168.382812 291.238281 168.449219 290.757812 C 168.519531 290.277344 168.542969 289.792969 168.527344 289.304688 C 168.1875 284.804688 162.769531 284.226562 159.476562 284.46875 C 143.316406 284.757812 139.394531 275.273438 138.671875 272.320312 C 138.476562 271.378906 138.359375 270.429688 138.316406 269.472656 C 138.277344 268.511719 138.3125 267.554688 138.429688 266.601562 C 138.542969 265.648438 138.734375 264.707031 139 263.785156 C 139.265625 262.863281 139.605469 261.96875 140.019531 261.101562 C 140.429688 260.234375 140.910156 259.402344 141.457031 258.613281 C 142.003906 257.824219 142.609375 257.082031 143.277344 256.390625 C 143.945312 255.699219 144.660156 255.066406 145.429688 254.492188 C 146.199219 253.917969 147.011719 253.410156 147.863281 252.964844 C 149.589844 251.941406 151.429688 251.199219 153.378906 250.738281 L 153.378906 245.902344 C 153.378906 245.582031 153.410156 245.269531 153.472656 244.957031 C 153.535156 244.644531 153.628906 244.34375 153.75 244.046875 C 153.871094 243.753906 154.019531 243.476562 154.195312 243.210938 C 154.371094 242.949219 154.574219 242.703125 154.796875 242.480469 C 155.023438 242.253906 155.265625 242.054688 155.53125 241.878906 C 155.796875 241.699219 156.074219 241.550781 156.367188 241.429688 C 156.660156 241.308594 156.964844 241.214844 157.277344 241.15625 C 157.585938 241.09375 157.902344 241.0625 158.21875 241.0625 C 158.539062 241.0625 158.851562 241.09375 159.164062 241.15625 C 159.476562 241.214844 159.777344 241.308594 160.070312 241.429688 C 160.363281 241.550781 160.644531 241.699219 160.90625 241.878906 C 161.171875 242.054688 161.417969 242.253906 161.640625 242.480469 C 161.867188 242.703125 162.066406 242.949219 162.242188 243.210938 C 162.417969 243.476562 162.570312 243.753906 162.691406 244.046875 C 162.8125 244.34375 162.902344 244.644531 162.964844 244.957031 C 163.027344 245.269531 163.058594 245.582031 163.058594 245.902344 L 163.058594 251.222656 C 167.070312 252.269531 170.761719 253.996094 174.140625 256.402344 C 174.390625 256.59375 174.625 256.808594 174.832031 257.046875 C 175.042969 257.285156 175.226562 257.539062 175.386719 257.816406 C 175.546875 258.089844 175.679688 258.375 175.78125 258.675781 C 175.886719 258.976562 175.957031 259.285156 176 259.597656 C 176.042969 259.914062 176.054688 260.226562 176.035156 260.546875 C 176.015625 260.863281 175.964844 261.171875 175.886719 261.480469 C 175.804688 261.789062 175.695312 262.082031 175.554688 262.367188 C 175.417969 262.652344 175.25 262.921875 175.058594 263.175781 C 174.867188 263.429688 174.652344 263.660156 174.414062 263.871094 C 174.175781 264.078125 173.917969 264.265625 173.644531 264.421875 C 173.371094 264.582031 173.082031 264.714844 172.785156 264.816406 C 172.484375 264.921875 172.175781 264.992188 171.863281 265.035156 C 171.546875 265.078125 171.230469 265.089844 170.914062 265.070312 C 170.597656 265.050781 170.285156 265 169.980469 264.921875 C 169.671875 264.839844 169.375 264.730469 169.089844 264.589844 C 168.804688 264.453125 168.539062 264.285156 168.285156 264.09375 C 165.257812 261.996094 161.917969 260.703125 158.269531 260.222656 L 158.027344 260.222656 C 156.035156 260.070312 154.148438 260.441406 152.363281 261.335938 C 151.597656 261.730469 150.90625 262.230469 150.296875 262.84375 C 149.6875 263.453125 149.1875 264.144531 148.796875 264.914062 C 148.40625 265.679688 148.140625 266.492188 148.007812 267.34375 C 147.875 268.195312 147.875 269.050781 148.007812 269.902344 C 148.878906 273.144531 152.847656 274.742188 159.285156 274.742188 C 172.253906 274.355469 177.574219 282 178.058594 288.582031 Z M 178.058594 288.582031 " fill-opacity="1" fill-rule="nonzero"/></g></svg>