<svg xmlns="http://www.w3.org/2000/svg" xmlns:xlink="http://www.w3.org/1999/xlink" width="500" zoomAndPan="magnify" viewBox="0 0 375 374.999991" height="500" preserveAspectRatio="xMidYMid meet" version="1.0"><defs><clipPath id="abdb57b25c"><path d="M 53.015625 37.5 L 322 37.5 L 322 324.75 L 53.015625 324.75 Z M 53.015625 37.5 " clip-rule="nonzero"/></clipPath></defs><rect x="-37.5" width="450" fill="#ffffff" y="-37.499999" height="449.999989" fill-opacity="1"/><rect x="-37.5" width="450" fill="#ffffff" y="-37.499999" height="449.999989" fill-opacity="1"/><g clip-path="url(#abdb57b25c)"><path fill="#fafafa" d="M 127.257812 222.835938 L 99.460938 222.835938 C 99.15625 222.835938 98.855469 222.867188 98.554688 222.925781 C 98.257812 222.984375 97.96875 223.074219 97.6875 223.191406 C 97.40625 223.308594 97.136719 223.449219 96.886719 223.617188 C 96.632812 223.789062 96.398438 223.980469 96.183594 224.195312 C 95.96875 224.410156 95.777344 224.644531 95.605469 224.898438 C 95.4375 225.148438 95.292969 225.417969 95.179688 225.699219 C 95.0625 225.980469 94.972656 226.269531 94.914062 226.566406 C 94.855469 226.867188 94.824219 227.167969 94.824219 227.472656 L 94.824219 242.867188 L 74.574219 250.96875 C 74.144531 251.140625 73.746094 251.371094 73.386719 251.660156 C 73.023438 251.953125 72.714844 252.289062 72.457031 252.671875 C 72.195312 253.054688 71.996094 253.46875 71.863281 253.914062 C 71.726562 254.355469 71.660156 254.808594 71.660156 255.273438 L 71.660156 284.425781 C 56.445312 289.699219 53.125 296.597656 53.125 301.605469 C 53.125 316.816406 83.425781 324.773438 113.359375 324.773438 C 143.292969 324.773438 173.59375 316.816406 173.59375 301.605469 C 173.59375 296.597656 170.273438 289.699219 155.058594 284.425781 L 155.058594 267.597656 L 228.144531 222.78125 C 240.558594 226.636719 253.265625 228.460938 266.261719 228.257812 C 293.890625 228.257812 321.863281 220.84375 321.863281 206.621094 C 321.863281 201.917969 318.800781 195.472656 304.875 190.566406 L 304.875 164.15625 C 304.875 163.691406 304.804688 163.238281 304.667969 162.796875 C 304.53125 162.355469 304.335938 161.941406 304.074219 161.558594 C 303.816406 161.175781 303.503906 160.839844 303.144531 160.546875 C 302.785156 160.257812 302.390625 160.027344 301.960938 159.855469 L 283.636719 152.515625 L 283.636719 138.660156 C 283.636719 138.359375 283.609375 138.054688 283.550781 137.757812 C 283.488281 137.460938 283.402344 137.167969 283.285156 136.890625 C 283.167969 136.609375 283.027344 136.339844 282.859375 136.085938 C 282.6875 135.835938 282.496094 135.601562 282.28125 135.386719 C 282.066406 135.171875 281.832031 134.976562 281.578125 134.808594 C 281.324219 134.640625 281.058594 134.496094 280.777344 134.382812 C 280.496094 134.265625 280.207031 134.175781 279.910156 134.117188 C 279.609375 134.058594 279.308594 134.027344 279.003906 134.027344 L 253.519531 134.027344 C 253.214844 134.027344 252.914062 134.058594 252.617188 134.117188 C 252.320312 134.175781 252.027344 134.265625 251.746094 134.382812 C 251.464844 134.496094 251.199219 134.640625 250.945312 134.808594 C 250.695312 134.976562 250.460938 135.171875 250.246094 135.386719 C 250.03125 135.601562 249.835938 135.835938 249.667969 136.085938 C 249.5 136.339844 249.355469 136.609375 249.242188 136.890625 C 249.125 137.167969 249.035156 137.460938 248.976562 137.757812 C 248.917969 138.054688 248.886719 138.359375 248.886719 138.660156 L 248.886719 152.515625 L 230.585938 159.847656 C 230.15625 160.019531 229.761719 160.25 229.398438 160.539062 C 229.039062 160.828125 228.730469 161.164062 228.46875 161.550781 C 228.210938 161.933594 228.011719 162.34375 227.875 162.789062 C 227.738281 163.230469 227.671875 163.683594 227.671875 164.144531 L 227.671875 167.046875 L 150.125 148.355469 C 150.320312 147.4375 150.417969 146.511719 150.425781 145.574219 C 150.425781 137.1875 142.945312 130.070312 130.734375 126.433594 L 130.734375 117.195312 L 238.75 93.566406 C 240.675781 95.105469 242.730469 96.460938 244.90625 97.625 C 247.082031 98.792969 249.34375 99.75 251.695312 100.503906 C 254.046875 101.253906 256.445312 101.789062 258.894531 102.101562 C 261.34375 102.414062 263.796875 102.503906 266.261719 102.367188 C 284.75 102.367188 298.695312 94.101562 298.695312 83.140625 C 298.695312 76.285156 293.003906 70.25 283.636719 66.847656 L 283.636719 42.132812 C 283.636719 41.828125 283.609375 41.527344 283.550781 41.230469 C 283.488281 40.929688 283.402344 40.640625 283.285156 40.359375 C 283.167969 40.078125 283.027344 39.8125 282.859375 39.558594 C 282.6875 39.304688 282.496094 39.070312 282.28125 38.855469 C 282.066406 38.640625 281.832031 38.449219 281.578125 38.28125 C 281.324219 38.113281 281.058594 37.96875 280.777344 37.851562 C 280.496094 37.734375 280.207031 37.648438 279.910156 37.589844 C 279.609375 37.53125 279.308594 37.5 279.003906 37.5 L 253.519531 37.5 C 253.214844 37.5 252.914062 37.53125 252.617188 37.589844 C 252.320312 37.648438 252.027344 37.734375 251.746094 37.851562 C 251.464844 37.96875 251.199219 38.113281 250.945312 38.28125 C 250.695312 38.449219 250.460938 38.640625 250.246094 38.855469 C 250.03125 39.070312 249.835938 39.304688 249.667969 39.558594 C 249.5 39.8125 249.355469 40.078125 249.242188 40.359375 C 249.125 40.640625 249.035156 40.929688 248.976562 41.230469 C 248.917969 41.527344 248.886719 41.828125 248.886719 42.132812 L 248.886719 66.847656 C 239.523438 70.25 233.828125 76.285156 233.828125 83.140625 C 233.828125 83.804688 233.882812 84.46875 233.988281 85.128906 L 130.734375 107.730469 L 130.734375 93.101562 C 130.734375 92.796875 130.707031 92.496094 130.644531 92.199219 C 130.585938 91.898438 130.5 91.609375 130.382812 91.328125 C 130.265625 91.046875 130.121094 90.78125 129.953125 90.527344 C 129.785156 90.273438 129.59375 90.039062 129.378906 89.824219 C 129.164062 89.609375 128.929688 89.417969 128.675781 89.25 C 128.421875 89.078125 128.15625 88.9375 127.875 88.820312 C 127.59375 88.703125 127.304688 88.617188 127.003906 88.558594 C 126.707031 88.496094 126.40625 88.46875 126.101562 88.46875 L 100.617188 88.46875 C 100.3125 88.46875 100.011719 88.496094 99.714844 88.558594 C 99.414062 88.617188 99.125 88.703125 98.84375 88.820312 C 98.5625 88.9375 98.296875 89.078125 98.042969 89.25 C 97.789062 89.417969 97.554688 89.609375 97.339844 89.824219 C 97.125 90.039062 96.933594 90.273438 96.765625 90.527344 C 96.597656 90.78125 96.453125 91.046875 96.335938 91.328125 C 96.21875 91.609375 96.132812 91.898438 96.074219 92.199219 C 96.011719 92.496094 95.984375 92.796875 95.984375 93.101562 L 95.984375 126.460938 C 83.773438 130.09375 76.292969 137.210938 76.292969 145.597656 C 76.292969 157.933594 92.226562 167.238281 113.359375 167.238281 C 127.394531 167.238281 139.097656 163.121094 145.402344 156.75 L 227.652344 176.582031 L 227.652344 190.566406 C 213.722656 195.472656 210.660156 201.917969 210.660156 206.621094 C 210.75 207.8125 210.988281 208.972656 211.375 210.101562 C 211.757812 211.234375 212.28125 212.296875 212.933594 213.296875 C 213.589844 214.292969 214.359375 215.195312 215.246094 215.996094 C 216.128906 216.796875 217.101562 217.476562 218.160156 218.03125 L 155.058594 256.726562 L 155.058594 255.273438 C 155.0625 254.808594 154.992188 254.355469 154.855469 253.914062 C 154.722656 253.46875 154.523438 253.054688 154.265625 252.671875 C 154.003906 252.289062 153.695312 251.953125 153.332031 251.660156 C 152.972656 251.371094 152.578125 251.140625 152.144531 250.96875 L 131.894531 242.867188 L 131.894531 227.472656 C 131.894531 227.167969 131.863281 226.867188 131.804688 226.566406 C 131.746094 226.269531 131.65625 225.980469 131.539062 225.699219 C 131.425781 225.417969 131.28125 225.148438 131.113281 224.898438 C 130.941406 224.644531 130.75 224.410156 130.535156 224.195312 C 130.320312 223.980469 130.085938 223.789062 129.832031 223.617188 C 129.582031 223.449219 129.3125 223.308594 129.03125 223.191406 C 128.75 223.074219 128.460938 222.984375 128.164062 222.925781 C 127.867188 222.867188 127.5625 222.835938 127.257812 222.835938 Z M 258.15625 46.765625 L 274.371094 46.765625 L 274.371094 76.976562 L 258.15625 76.976562 Z M 248.886719 76.929688 L 248.886719 81.609375 C 248.886719 81.914062 248.917969 82.214844 248.976562 82.515625 C 249.035156 82.8125 249.125 83.101562 249.242188 83.382812 C 249.355469 83.664062 249.5 83.929688 249.667969 84.183594 C 249.835938 84.4375 250.03125 84.671875 250.246094 84.886719 C 250.460938 85.101562 250.695312 85.292969 250.945312 85.464844 C 251.199219 85.632812 251.464844 85.773438 251.746094 85.890625 C 252.027344 86.007812 252.320312 86.09375 252.617188 86.15625 C 252.914062 86.214844 253.214844 86.242188 253.519531 86.242188 L 279.003906 86.242188 C 279.308594 86.242188 279.609375 86.214844 279.910156 86.15625 C 280.207031 86.09375 280.496094 86.007812 280.777344 85.890625 C 281.058594 85.773438 281.324219 85.632812 281.578125 85.464844 C 281.832031 85.292969 282.066406 85.101562 282.28125 84.886719 C 282.496094 84.671875 282.6875 84.4375 282.859375 84.183594 C 283.027344 83.929688 283.167969 83.664062 283.285156 83.382812 C 283.402344 83.101562 283.488281 82.8125 283.550781 82.515625 C 283.609375 82.214844 283.636719 81.914062 283.636719 81.609375 L 283.636719 76.929688 C 287.429688 78.90625 289.429688 81.289062 289.429688 83.140625 C 289.429688 87.203125 280.402344 93.101562 266.261719 93.101562 C 252.121094 93.101562 243.097656 87.203125 243.097656 83.140625 C 243.097656 81.289062 245.097656 78.90625 248.886719 76.929688 Z M 105.25 97.734375 L 121.46875 97.734375 L 121.46875 140.980469 L 105.25 140.980469 Z M 113.359375 157.96875 C 97.449219 157.96875 85.558594 151.4375 85.558594 145.597656 C 85.558594 142.203125 89.730469 138.648438 95.984375 136.226562 L 95.984375 145.613281 C 95.984375 145.917969 96.011719 146.21875 96.074219 146.515625 C 96.132812 146.8125 96.21875 147.105469 96.335938 147.386719 C 96.453125 147.667969 96.597656 147.933594 96.765625 148.1875 C 96.933594 148.4375 97.125 148.671875 97.339844 148.886719 C 97.554688 149.105469 97.789062 149.296875 98.042969 149.464844 C 98.296875 149.632812 98.5625 149.777344 98.84375 149.894531 C 99.125 150.007812 99.414062 150.097656 99.714844 150.15625 C 100.011719 150.214844 100.3125 150.246094 100.617188 150.246094 L 126.101562 150.246094 C 126.40625 150.246094 126.707031 150.214844 127.003906 150.15625 C 127.304688 150.097656 127.59375 150.007812 127.875 149.894531 C 128.15625 149.777344 128.421875 149.632812 128.675781 149.464844 C 128.929688 149.296875 129.164062 149.105469 129.378906 148.886719 C 129.59375 148.671875 129.785156 148.4375 129.953125 148.1875 C 130.121094 147.933594 130.265625 147.667969 130.382812 147.386719 C 130.5 147.105469 130.585938 146.8125 130.644531 146.515625 C 130.707031 146.21875 130.734375 145.917969 130.734375 145.613281 L 130.734375 136.226562 C 136.988281 138.625 141.160156 142.214844 141.160156 145.597656 C 141.160156 151.4375 129.269531 157.96875 113.359375 157.96875 Z M 283.636719 162.496094 L 295.605469 167.28125 L 295.605469 201.988281 L 283.636719 201.988281 Z M 258.15625 143.296875 L 274.371094 143.296875 L 274.371094 201.988281 L 258.15625 201.988281 Z M 236.917969 167.28125 L 248.886719 162.496094 L 248.886719 201.988281 L 236.917969 201.988281 Z M 227.652344 200.527344 L 227.652344 206.621094 C 227.652344 206.925781 227.683594 207.226562 227.742188 207.523438 C 227.800781 207.824219 227.890625 208.113281 228.003906 208.394531 C 228.121094 208.675781 228.265625 208.941406 228.433594 209.195312 C 228.601562 209.449219 228.792969 209.683594 229.007812 209.898438 C 229.226562 210.113281 229.457031 210.304688 229.710938 210.472656 C 229.964844 210.640625 230.230469 210.785156 230.511719 210.902344 C 230.792969 211.019531 231.082031 211.105469 231.382812 211.164062 C 231.679688 211.222656 231.980469 211.253906 232.285156 211.253906 L 300.238281 211.253906 C 300.542969 211.253906 300.84375 211.222656 301.144531 211.164062 C 301.441406 211.105469 301.730469 211.019531 302.011719 210.902344 C 302.292969 210.785156 302.5625 210.640625 302.8125 210.472656 C 303.066406 210.304688 303.300781 210.113281 303.515625 209.898438 C 303.730469 209.683594 303.921875 209.449219 304.09375 209.195312 C 304.261719 208.941406 304.40625 208.675781 304.519531 208.394531 C 304.636719 208.113281 304.726562 207.824219 304.785156 207.523438 C 304.84375 207.226562 304.875 206.925781 304.875 206.621094 L 304.875 200.527344 C 310.382812 202.941406 312.597656 205.382812 312.597656 206.621094 C 312.597656 210.980469 294.992188 218.992188 266.261719 218.992188 C 237.535156 218.992188 219.929688 210.980469 219.929688 206.621094 C 219.929688 205.382812 222.144531 202.941406 227.652344 200.527344 Z M 104.09375 232.105469 L 122.625 232.105469 L 122.625 296.972656 L 104.09375 296.972656 Z M 80.925781 258.410156 L 94.824219 252.847656 L 94.824219 296.972656 L 80.925781 296.972656 Z M 155.058594 301.605469 L 155.058594 294.363281 C 162.167969 297.324219 164.328125 300.257812 164.328125 301.605469 C 164.328125 306.324219 146.335938 315.507812 113.359375 315.507812 C 80.382812 315.507812 62.390625 306.324219 62.390625 301.605469 C 62.390625 300.257812 64.550781 297.324219 71.660156 294.363281 L 71.660156 301.605469 C 71.660156 301.910156 71.6875 302.210938 71.746094 302.511719 C 71.808594 302.808594 71.894531 303.097656 72.011719 303.378906 C 72.128906 303.660156 72.269531 303.925781 72.4375 304.179688 C 72.609375 304.433594 72.800781 304.667969 73.015625 304.882812 C 73.230469 305.097656 73.464844 305.289062 73.71875 305.457031 C 73.96875 305.628906 74.238281 305.769531 74.519531 305.886719 C 74.800781 306.003906 75.089844 306.089844 75.386719 306.152344 C 75.6875 306.210938 75.988281 306.238281 76.292969 306.238281 L 150.425781 306.238281 C 150.730469 306.238281 151.03125 306.210938 151.332031 306.152344 C 151.628906 306.089844 151.917969 306.003906 152.199219 305.886719 C 152.480469 305.769531 152.75 305.628906 153 305.457031 C 153.253906 305.289062 153.488281 305.097656 153.703125 304.882812 C 153.917969 304.667969 154.109375 304.433594 154.28125 304.179688 C 154.449219 303.925781 154.589844 303.660156 154.707031 303.378906 C 154.824219 303.097656 154.910156 302.808594 154.972656 302.511719 C 155.03125 302.210938 155.058594 301.910156 155.058594 301.605469 Z M 145.792969 258.410156 L 145.792969 296.972656 L 131.894531 296.972656 L 131.894531 252.847656 Z M 145.792969 258.410156 " fill-opacity="1" fill-rule="nonzero"/></g></svg>